# xmcd
#
# Track frame offsets:
#      150
#      26702
#      52759
#      74149
#      95339
#      117689
#      144294
#      163966
#      188408
#      208895
#      230636
#      252236
#      280217
# 
# Disc length: 4481 seconds
#
# Revision: 7
# Processed by: cddbd v1.4PL0 Copyright (c) Steve Scherf et al.
#
# Submitted via: FreeRIP 1.21
#
DISCID=c4117f0d
DTITLE=Santana - Supernatural
DYEAR=1999
DGENRE=Latin-Jazz
TTITLE0=(Da Le) Yaleo
TTITLE1=Love Of My Life (Feat. Dave Matthews)
TTITLE2=Put Your Lights On (Feat. Everlast)
TTITLE3=Africa Bamba
TTITLE4=Smooth (Feat. Rob Thomas)
TTITLE5=Do You Like The Way (Feat. Cee Lo and Lauryn Hill)
TTITLE6=Maria Maria (The Product G&B and Wyclef Jean)
TTITLE7=Migra
TTITLE8=Corazon Espinado (Feat. Maña)
TTITLE9=Wishing It Was (Feat. Eagle-Eye Cherry)
TTITLE10=El Farol
TTITLE11=Primavera
TTITLE12=The Calling (Feat. Eric Clapton)
EXTD=
EXTT0=
EXTT1=
EXTT2=
EXTT3=
EXTT4=
EXTT5=
EXTT6=
EXTT7=
EXTT8=
EXTT9=
EXTT10=
EXTT11=
EXTT12=
PLAYORDER=
